<svg xmlns="http://www.w3.org/2000/svg" viewBox="0 0 1282.38 1076.04" fill="#ef4b4b" xmlns:v="https://vecta.io/nano"><path d="M916.26 455.14c14.6-5.72 24.76 2 37.52 5.33l18.58-15.65c12.78-10.27 26.1-19.15 43.32-20.36 20-1.4 36.44 5.33 49.2 20.58 9.53 11.38 13.48 24.52 8.5 39-3.5 10.2-7.13 20.7-12.82 29.73a534.66 534.66 0 0 1-32.36 45.19 60.34 60.34 0 0 1-17.57 14.67c-18.6 10.48-27.86 8.65-42.8-6.9-2.1-2.2-3.86-4.7-5.44-6.66.4-7.27 5.17-9.67 10.12-12 5.5-2.54 12.15-3.93 16.28-7.92 20.23-19.58 36.64-41.9 44.82-69.35 1-3.45.75-7.3 1-10.4-6.83-4.36-11.63-1.27-16.07 1.43-25.22 15.36-44.46 36.45-54.87 64-14.24 37.67-24.9 76.42-28.2 116.86a220.46 220.46 0 0 1-4.09 27.53 13.92 13.92 0 0 1-19.88 9.62 99 99 0 0 1-15.62-9.95c-5.94-4.5-8.35-10-6.44-18.18 3.84-16.4 7.84-32.87 8.65-51.1-17.67 9-33.47 18-50.08 25.2-17.33 7.47-35.86 8.88-54.66 6.2s-34.83-11.88-51.2-22.06l-12.6 5c-10.08 3.83-20 8.3-30.3 11.3-28.1 8.16-55 6.72-79.45-11.52-3.68-2.75-7.7-5-12.45-8.1l-16.26 7.83c-16.07 7.87-31.52 6-46.28-3.28-7.07-4.46-13.76-9.5-21.54-14.9-4.82 5.2-9.07 9.47-12.95 14a99.08 99.08 0 0 1-36.85 27.42c-9.76 4.2-19.05 4.87-29.12.9a101.13 101.13 0 0 1-34.59-22.84c-8.83-8.8-12.4-19.46-6.68-31.74q14.2-30.47 28.26-61c20.43-22.32 40.3-45.6 74.94-43.45a71 71 0 0 0 7.75-.44c7.18-9.24 8.1-20.88 10.48-32l7.36-33.77c15.7-5.43 27.36 2.44 38.64 10.38 5 3.52 4.25 9.67 3 15.07q-7.6 31.56-15.43 63c-4.7 18.93-8.7 37.86-7.8 57.36.34 7.6 1.16 15.15 1.76 22.84 14.06 3.6 21.68-4.88 29.63-11.68 6.7-5.74 9.7-13 9.36-22.52-1.64-45.74 14.8-84.35 47.36-116.4 7.4-7.3 15.75-9 25.5-6.62 20.68 5.14 36.95 15.5 43.85 35.9-1.54 22.92-9.38 42.6-20.5 61.64-9.13 15.62-20.53 28.9-33.38 41.28-6.06 5.83-11.94 11.84-18.63 18.5l9.4 19.7c28.4-.1 52.3-8.9 74.24-26.3l-1.13-22.85c-2.38-45.54 15.67-82.84 46.94-114.46 13.2-13.35 26-13 39.57-4.4 17.2 11 27.44 24.43 25.82 45.5-.42 5.38 0 10.82 0 16.24.06 20-5.7 38-18.46 53.65-10.28 12.6-20.4 25.27-33.77 34.92-4.27 3.1-7.84 7.14-12.1 11.1 7.67 9.84 17.62 11.26 27.66 9.86 36.17-5 66.1-20.55 85.6-52.88 13.24-22 24.55-44.7 30.17-70 1.95-8.92 4.62-17.75 7.07-26.98zM443.52 609.08c7.14-2.7 12.84-3.45 16.57-6.56 7-5.86 14.3-12.22 19-19.9 12.35-20.32 24.22-41.1 29-64.84.5-2.43-.6-5.18-1-8.24-36.16 16.1-60.3 53.2-63.57 99.54zm313.82-66.25c26.35-18.6 38.67-46.23 32-71.63-20.67 19.6-32.82 41.94-32 71.63zM630.1 528.9c26.35-18.6 38.67-46.23 32-71.63-20.7 19.6-32.82 41.94-32 71.63zm645.43-355.6c-15.32-15-21.6-11.6-33 .13-48.4 49.78-108.34 81.48-171.7 107.54-2.82 1.16-6.22.92-11.25 1.57 0-7.6-1.06-14.25.23-20.4 2.53-12.14 6.54-24 9.6-36 2.25-8.8 4.4-17.66 5.83-26.6 2.15-13.43-5-22.33-16-28.2-13.8-7.35-28.2-9.3-43.1-2.7a152 152 0 0 0-45.21 30.39c-21.45 21-40.56 43.8-55.23 70.2a263.64 263.64 0 0 1-18.83 29.24c-1.28 1.7-2.87 1.38-4.67.93a20.56 20.56 0 0 1-13.49-10.54c-2.17-4.34-2.27-8.37.15-14.72q7.5-19.72 15.9-39.1c2-4.5 5.62-8.3 7.56-12.8 3.72-8.7 1.65-16.14-5.56-22.15-6.93-5.77-13.8-11.65-21-17-17.62-13-35-13.9-52.67-1.14-14.85 10.67-28.68 22.67-42.56 34.52l-87 74.5c-2.93 2.5-5.8 6.2-12.08 3.88-.35-2.42-1.17-5.43-1.16-8.44 0-9.13.47-18.25.57-27.4a130.43 130.43 0 0 0-.45-14.93c-2.73-26.6-19.9-44.2-45.88-52.2-24.72-7.6-44.18-1.15-60.53 17-8.8 9.8-16.06 21-24.2 31.4-2.88 3.7-6.26 7-9.9 11-12.13-11.52-25.58-16.93-40.25-21-21.2-5.82-39.25-1.34-55.77 12.13l-17.92 14.95c-3.34-3.94-6.1-6.78-8.4-10-9.15-12.8-22-19.9-36.7-24.12-8.77-2.52-17.76-4.28-26.55-6.72-5.33-1.5-10.48-3.63-16-5.57l-1.4-43.5c-1.3-31.52-2.3-63.1-9.25-94C323 52.8 313.73 34.4 298.74 19.23 279.47-.27 249.9-5.87 225.6 6.17c-28.44 14.1-54.8 31.33-75.35 56.12-31.84 38.4-61.42 78.4-85.17 122.44a99.7 99.7 0 0 0-7.91 18.12q-12.62 41.73-24.55 83.57c-3.4 12-7.17 24-8.73 36.28-8 63.34-19.4 126.28-23 190.15C.33 523-.35 533.2.15 544.03a21.35 21.35 0 0 0 15.16 19.43l5.94 1.8A21.18 21.18 0 0 0 44 558.32c2.3-2.9 2.25-4.54 2.1-8.3-1.3-30.9 4.1-65.53 8.53-95.86 1.32-9 4.07-18.23 3.35-27.12-1.66-20.2 3.2-35.25 5.88-54.87 3.92-28.73 7.38-57.55 17.8-85.1 8.5-22.44 14-46 22.44-68.48 6.37-17 13.48-34.2 23.36-49.3 16.36-24.94 35.75-47.88 52.9-72.34 19.17-27.33 45-46.18 73.94-61.47 4-2.14 8.94-2.64 13-3.76 13.7 21.44 18.08 32.53 20.43 56.84 2.75 28.92 5.18 57.9 6.6 86.9.7 13.92-1.24 28-2 42-4.88 2.34-8.4 4.52-12.25 5.82-40.44 13.7-74.44 39.9-112.6 58.06-3.84 1.83-4.75 8-2.2 10.8 13.4 15 30.95 18.27 48.74 8.63l54.5-30c4.67-2.5 10.2-3.4 16.42-5.37 0 4.34.2 6.75 0 9.1-4.23 42.15-8 84.27-6.05 126.76 1.16 24.8 1.6 49.72.9 74.54-.77 28.26-6.64 129.5-8 157.75 7.92-.55 15.95-.45 23.6-1l20.54-1.2c.46-5 4.3-83.1 4.6-88.15 3.14-56.4 3.12-112.83 2.16-169.28-.63-36.66 1.92-73 9.37-108.93 1.14-5.48 2.8-10.85 3.95-15.23 11.2-5 20.95-4.6 30.93-2.64 7.3 1.43 12.12 5.64 14.2 12.4a82.82 82.82 0 0 1 4 19.4c.74 13.24 1 26.55.57 39.8l-3.78 81.85c4.1 3.7 7.6 7.25 11.52 10.27a78 78 0 0 0 10.55 6.54c14.35 7.75 26.17 1 27.8-15.44 1.3-13.17 2.42-26.4 4.66-39.43 4.1-23.83 11-46.83 23-68.05 7.48-13.27 17-24.68 31.2-31.1 8.8-4 17-.94 20.07 8.3s5.8 19.2 6 28.9c.3 11.46-1.56 23.14-3.8 34.46-1.86 9.32.17 16.26 7.6 21.88 4 3 8.14 5.84 11.72 9.26 11.2 10.7 31.5-1.34 29.86-15.62-2-17.15 3.47-32.9 9.2-48.44 9.24-25 21-48.72 39.72-68.35 5.8-6.1 11.76-11.57 21.33-11.28 8.5 8.65 7.47 19.6 7.13 29.95a253.9 253.9 0 0 1-2 26.14c-3.54 26.06 4.85 46.34 24.88 63.24 11.37 9.6 22.9 9.27 34.1 2.63 5.5-3.26 10.6-7.2 16-11 1.24 2.6 2.78 4.28 2.46 5.44-5.35 19.87 5.27 33.54 18.15 45.93 12.66 12.2 22.18 13.3 38.48 5.4a84.5 84.5 0 0 0 25.75-19.11c14.6-15.82 30.2-30.7 45.66-45.7 3.37-3.27 7.83-5.42 12.36-8.46 4 3.42 7.52 5.66 10 8.76 8.53 10.6 20.8 13.07 33 15.6 7.6 1.58 14.2-.8 21.12-4.8 18.46-10.76 28-28.77 36-46.57 9.77-21.86 24.45-39 40.52-55.82 6.9-7.2 13-15 22.1-19.63 3.86-2 7.33-3.92 10.9 1.1-2.4 9.35-5.17 18.9-7.3 28.6-6.33 28.86 3.7 52.15 25 71.4 5.1 4.6 11.08 8 18 6.86a154.75 154.75 0 0 0 26.32-6.11c6.15-2.14 11.43-6.65 17.3-9.72 22-11.52 44.6-22.15 66.2-34.5 23-13.17 45.85-26.87 67.33-42.33 16.52-11.9 33-25 40.54-46.22-2.3-3.6-3.93-7.55-6.8-10.3zm-446.13 100c-11.15 19.7-27 35.62-42.72 51.47-7.46 7.5-15.76 14.16-24.87 22.26-1.44-3.8-3.2-6-2.78-7.7a184 184 0 0 1 29.93-65c11.85-16.4 25-30.68 43-40.1 1.94-1 4.47-.93 7.27-1.47 2.58 15.42-2.83 28.18-9.83 40.54zm-394.77 736.03c7.9 1.9 11.82 9.9 19 13.35 3.65 1.75 8.1 1 10.27-2.7 1.92-3.28 1-8.5-2.7-10.26s-5.88-4.66-8.82-7.3a31.38 31.38 0 0 0-13.75-7.56c-9.38-2.26-13.4 12.2-4 14.46zM267.4 1045.8c2 7.73-3.05 15.15-2.77 23 .35 9.63 15.36 9.67 15 0-.14-4.08 1.5-7.77 2.38-11.7a31.85 31.85 0 0 0-.15-15.28c-2.4-9.35-16.86-5.38-14.46 4z"/><path d="M361.3 1043.38c6.16 5.46 5.92 14.18 10.64 20.63 2.4 3.26 6.5 4.9 10.27 2.7 3.22-1.88 5.1-7 2.7-10.26s-3.15-7-4.55-10.8a31.18 31.18 0 0 0-8.45-12.88c-7.2-6.4-17.84 4.18-10.6 10.6zm-27.9-110.06a11.05 11.05 0 0 0-9.15-5.17c-1.3 2.2-3.2 2.56-5.65 2.3a16 16 0 0 1-6.9-2.19 43.59 43.59 0 0 1-3.78 2.66c-2.22 1.26-4.06 1-5.64-1a14.47 14.47 0 0 1-3-11.42c.32-2.15 1.94-3 3.6-4 .82 1.1.5 2.14.4 3.13a11.86 11.86 0 0 0 1.66 7.87c.42.65.93 1.24 1.46 1.94 1.53-1.35 2.23-2.77 1.7-4.77a15.17 15.17 0 0 1-.41-2.86 2.41 2.41 0 0 1 2.21-2.69c1.77-.24 2.64.32 2.95 2a13.47 13.47 0 0 1 .11 1.56c.12 2.9 1.06 4.2 4.16 5.37l.08-3.06v-5.14c0-1 0 0-.16-2.82a16.76 16.76 0 0 0 0-2.07l-.37-8.28c0-.2-1.24-.66-1.35-.9-4.86 2.08-10 2.5-15.1 3-1.55.17-2.4-.57-2.2-1.85a2.2 2.2 0 0 1 .95-1.5 7.29 7.29 0 0 1 2.83-.67 40.25 40.25 0 0 0 10.89-1.66c2.7-.82 2.76-.92 2.45-3.83l-.45-5.06-9.13 1.83a24.88 24.88 0 0 1-3.09.51 7 7 0 0 1-2.45-.27 1.91 1.91 0 0 1-1.5-2.28 2.4 2.4 0 0 1 2.64-1.63c.77.16 1.55.27 2.5.44a50.61 50.61 0 0 0-.27-11.62c-2 .75-4 .7-5.75 1.88s-1.7 1.08-3.42-.47c.07-2.1 1.53-2.54 3.28-2.84-.06-4.2 1.57-7.92 2.88-11.75a2.51 2.51 0 0 1 3-2c1.22 0 1.67.6 2 2.32l1.73 7.33 5.55-2.5-.83-11.5-1-11.55a17.87 17.87 0 0 1 .09-3.35 3.27 3.27 0 0 1 3.12-3c1.13 0 1.66.62 1.47 1.8a52.23 52.23 0 0 0-.08 11.11l.88 15.1c.28 3.84.78 7.66 1.14 11.5l.95 11a15.05 15.05 0 0 0 .75 4.26 42.86 42.86 0 0 1 4.54-1.81c3-.82 4.47-.1 5.77 2.8a41.86 41.86 0 0 1 2 6.06c.48 1.84-.1 2.85-1.74 3.8a9.32 9.32 0 0 1-4.81 1.25c-1 0-1.93-.13-2.88-.2-.84 2.3-1 12.57-.24 16.76a13.9 13.9 0 0 1 12 2.86c1.8 1.48 3.75 2.87 4.43 5.5-1.44 2.34-3.76 3.3-6.08 3.94-4.7 1.3-9.4 2.82-14.28 3-2.9.12-5.83-.16-8.74-.28-1.45-.06-2.9-.33-4.35-.25-4 .23-8 .63-12.05.88a14.71 14.71 0 0 1-3.31-.22 2 2 0 0 1-1.85-2.06 1.86 1.86 0 0 1 2.15-1c2.67.6 5.26-.2 7.86-.52a52.06 52.06 0 0 1 13.94-.06c6.74.92 13.13-.62 19.53-2.42a6 6 0 0 0 1.34-.6 6.56 6.56 0 0 0 .97-.63zm-19.05-44.9c-.35-4.47-.58-8.86-1.3-13.4l-4.1 1.7a1.65 1.65 0 0 0-1.08 1.88l.2 8.22c0 .94.24 1.88.37 2.85 2.08.37 3.77-.9 5.87-1.24zm6 12.75c2.1 2.23 3.86 4.28 7 3.9a10.52 10.52 0 0 0-3-7.24c-.55.37-1.27.6-1.3.92-.28 1.5-1.3 1.95-2.8 2.42zm-18-26.14l.5-.13-.45-1.27-.28.07zm-5.8 9.7a3.4 3.4 0 0 1 1.54.43c.48.4 1.08 1.27.95 1.72a8.43 8.43 0 0 1-1.67 3.39 6.1 6.1 0 0 1-2.81 1.27 1.8 1.8 0 0 1-2.22-1.14c-1.62-3.1-.5-5.17 3.12-5.67a9.57 9.57 0 0 1 1.09 0zm-9.6-288.05c5.9-1.88 8.2-.9 11 3.76 2.23 3.7 2.66 7.75 2.4 11.8-.42 6.58.7 13.12-.1 19.76-.48 4 1.3 8.3 1.57 12.5.4 6.24.26 12.52.56 18.77.14 2.93.8 5.84 1.26 9a64 64 0 0 1 6.74 2.45c7.8 3.84 13 10.08 14.6 18.57 2.5 13.3 4.4 26.7 6.46 40.07l2.56 18.32c4.28.6 6.14 3.7 8.16 6.88l23.57 36.38a11.09 11.09 0 0 0 3.57 3.31c4.4 2.6 5.32 5.9 4.22 10.94a49.05 49.05 0 0 0-.87 13.2c.54 9.06 1.6 18.1 2.45 27.13l4.57 48.7c.6 5.88 2 11.67 2.77 17.54a443.3 443.3 0 0 1 3.82 66.55c-.06 2.23 0 4.46.15 6.68.26 4.48-1.4 6.9-5.58 7-8.33.27-16.67.1-25 .38-6.66.22-13.3.92-20 1.26l-33.34 1.52c-11.47.74-22.9 1.86-34.36 2.85a93.73 93.73 0 0 0-27.45 6.49c-6.25 2.54-11.84-2.88-10.9-9.66.84-6 1.13-12.17 1.72-18.26.17-1.8.62-3.6.8-5.4.23-2.36.24-4.75.48-7.12q.75-7.67 1.66-15.33c1-8.63 2.54-17.23 3.08-25.9 1-15.73 1.5-31.5 2.05-47.24.22-6.3-.1-12.6 0-18.9.1-7.22.6-14.45.5-21.67-.12-8.14-.64-16.28-1.12-24.42-.16-2.74-1.8-4.66-4-6.37-3.36-2.63-3.27-3.6-.6-7.1a47.88 47.88 0 0 0 2.62-4.25l7.76-12.83c1.72-3 3-6.33 4.7-9.4 1.58-2.86 3.46-5.55 5.16-8.35 2.57-4.25 5.22-8.46 7.57-12.84a6.78 6.78 0 0 0 .31-4.31c-3.24-14.72-1.26-29.16 2.46-43.42a56.71 56.71 0 0 1 9-18.38 59 59 0 0 1 15.25-15.17c1.92-1.3 2-2.8 1.93-4.75l-.82-25-2.1-35.55c-.2-3.44-.78-6.88-1.24-10.22zm-15.54 380.1c5.18 2.06 10.36 1.64 15.44.9 7.87-1.16 15.7-2.64 23.52-4.13l32.66-6.48c5.84-1.27 6-1.74 6.1-8l.36-22.26c.18-7.22.82-14.45.6-21.65-.17-5.53-1.55-11-2-16.53l-2.56-32.66-2.4-24.85c-.4-4.77-.56-9.56-.7-14.35a49 49 0 0 1 .26-6.63 3.91 3.91 0 0 1 1.22-2.31c1.68-1.48 6.85-1.58 9-.3 2.67 1.6 5 3.33 3.5 7.07a5.37 5.37 0 0 0-.12 2.2l1.85 30c.25 3.9.68 7.76 1 11.64l3.26 36.52c.55 6.45 1.36 12.92 1.3 19.37-.1 13.9-1.74 27.77.27 41.65.2 1.3-.06 3.3-.9 4-4.38 3.76-9.22 7.47-15.24 6.85a45.07 45.07 0 0 0-12.64.89c-9.84 1.7-19.73 2.8-29.4 5.76-13.94 4.25-28.3 1.75-42.5 1.06a8.22 8.22 0 0 1-2.17-.49c-3.44-1.1-4.05-2.7-3.25-6.24a141.48 141.48 0 0 0 2.43-14.16c.65-5.5.95-11 1.3-16.55.64-9.77 1.63-19.55 1.74-29.33.16-15.55.13-31.13-.58-46.67-.8-17-2.5-34-3.65-51-.13-1.9.74-3.86 1.2-6.15h-6.68v5.9l.45 29.45-.05 35c-.13 8.88-.58 17.76-1 26.63-.18 4.07-.67 8.12-.85 12.2-.3 6.47 0 13-.75 19.4-1 8.8-2.9 17.5-3.95 26.3-1 8.42-1.1 16.93-2.7 25.3a5.85 5.85 0 0 0 .39 1.86 22.38 22.38 0 0 0 3.23-.21c15.83-3.4 31.93-4.25 48-5.18 6.28-.36 12.6-.33 18.9-.67 12-.63 24-.82 36-2.67 5-.78 10-2 15.33-.33 3.5 1.1 4.8-.45 5.34-4.34a40.23 40.23 0 0 0 .51-6.08l-.75-25.54c-.7-11.65-1.56-23.3-2.7-34.9l-5.16-47.52-6.2-60.23c-7.7.34-15.64.33-23.5 1.14-9.2 1-18.3 3.18-27.53 3.86-12.2.9-24.45.82-36.68 1.18-1.32 0-2.64.22-3.95.33 5.38 1 6.45 5 7.08 9.1s1.1 8.45 1.43 12.7c.86 11.4-.4 22.9 1.82 34.24a17.8 17.8 0 0 1-.21 3.3v31.95c-.17 8.25-.9 16.64-.87 25 0 5 .32 9.94-1.16 14.87-.68 2.24-.43 4.76-.58 7.15-.47 7 .57 14.1-2.14 20.85a8.83 8.83 0 0 0 .01 2.83zm-20.82-174.7c3.3.8 5.92 2 8.56 2 12 .18 24.12.63 36.1-.15 12.16-.78 24.22-3 36.36-4.35 5.52-.6 11.1-.43 16.66-.7 1.7-.08 3.37-.5 6.1-.9L334 766.16c-3.27-5.43-7.6-7.77-13.72-7.42a36.73 36.73 0 0 1-4.45-.09c-10.17-.6-20.38-.84-30.5-1.95-5-.55-7.9 1.08-10.7 4.85-8.66 11.64-15.73 24.22-22.67 36.9a33.71 33.71 0 0 0-1.32 3.65zm48.55-78c-.87 1-1.42 2.15-2.27 2.45-2.25.78-7.5-2-8.35-4.34a3 3 0 0 1-.2-2.13c2.92-5.13 1.92-10.9 2.48-16.33s1.5-10.9 0-16.93c-1.86 1.54-3.74 2.4-4.55 3.88-3.56 6.43-8 12.37-9.42 19.95-1.9 10.24-4.23 20.36-2.57 30.86.85 5.4.9 5.8 6.45 6.6a156.22 156.22 0 0 0 17.17 1.38c6.83.22 13.68 0 20.52 0-.22-2.17-.6-4.34-.62-6.5 0-3.3.5-6.65.25-9.93-.62-7.57-1.23-15.17-2.48-22.65s-3.1-14.86-5-22.2c-.78-3-2.45-5.7-6.45-5.9l-1.2 44.2z"/></svg>